<svg xmlns="http://www.w3.org/2000/svg" version="1.1" xmlns:xlink="http://www.w3.org/1999/xlink" xmlns:svgjs="http://svgjs.dev/svgjs" width="1471" height="803" preserveAspectRatio="none" viewBox="0 0 1471 803"><g mask="url(&quot;#SvgjsMask3240&quot;)" fill="none"><rect width="1471" height="803" x="0" y="0" fill="url(&quot;#SvgjsLinearGradient3241&quot;)"></rect><path d="M12.76 201C10.53 192.94 0.52 198.07 0 189.83C-5.86 97.57 -41.67 53.24 0 0C32.61 -41.67 82.75 -19.03 148.57 0C183.25 10.03 173.85 29.94 201 58.12C270.66 130.44 298.88 115.64 342.18 201C386.1 287.58 350.5 305.41 375.45 402C380.41 421.2 383.86 424.41 402 432.59C497.63 475.73 508.48 512.97 603 504.64C682.07 497.67 749.18 446.83 749.18 402C749.18 361.54 667.23 380.6 603 334.06C528.54 280.1 471.79 267.76 471.79 201C471.79 133.75 528.07 71.71 603 66.04C694.18 59.14 715.87 192.16 804 175.87C894.54 159.14 875.86 73.91 960.33 0C976.36 -14.03 982.66 0 1005 0C1105.5 0 1105.5 0 1206 0C1284.16 0 1362.33 -35.95 1362.33 0C1362.33 55.24 1289.23 97.99 1206 182.39C1190.12 198.49 1164.12 185.62 1164.12 201C1164.12 226.33 1172.91 253.23 1206 263.81C1294.35 292.06 1319.57 299.87 1407 278.66C1449.03 268.46 1432.57 236.92 1464.92 201C1533.07 125.32 1566.24 55.45 1608 55.45C1637.78 55.45 1608 128.23 1608 201C1608 301.5 1608 301.5 1608 402C1608 432.46 1629.91 446.92 1608 462.91C1529.41 520.26 1510.66 537.24 1407 548.68C1309.66 559.43 1284.76 489.14 1206 507.29C1166.93 516.3 1171.34 558.92 1171.34 603C1171.34 624.41 1182.74 634.52 1206 638.26C1300.57 653.48 1321.04 603.17 1407 640.92C1509.73 686.04 1583.39 756.98 1583.39 804C1583.39 838.52 1495.2 804 1407 804C1306.5 804 1306.5 804 1206 804C1105.5 804 1105.5 804 1005 804C904.5 804 904.5 804 804 804C703.5 804 703.5 804 603 804C502.5 804 502.5 804 402 804C301.5 804 301.5 804 201 804C100.5 804 50.25 854.25 0 804C-50.25 753.75 0 703.5 0 603C0 546.9 -15.07 542.37 0 490.81C14.3 441.87 56.58 451.35 58.75 402C62.96 306.44 39.9 299.02 12.76 201" stroke="rgba(238, 174, 34, 0.8666666666666667)" stroke-width="2"></path><path d="M201 548.76C161.36 548.76 117.66 574.37 117.66 603C117.66 633.13 161.77 666.28 201 666.28C233.95 666.28 262.02 633.47 262.02 603C262.02 574.71 233.54 548.76 201 548.76" stroke="rgba(238, 221, 34, 0.8666666666666667)" stroke-width="2"></path><path d="M92.52 201C105.46 144.56 149.69 118.66 201 118.66C244.61 118.66 267.81 149.23 282.36 201C307.63 290.9 307.44 313.71 280.64 402C266.76 447.71 239.12 469 201 469C166.83 469 152.99 443.82 136.06 402C98.75 309.82 72.99 286.23 92.52 201" stroke="rgba(238, 221, 34, 0.8666666666666667)" stroke-width="2"></path><path d="M93.95 0C93.95 37.13 26.28 120.04 0 120.04C-20.7 120.04 -26.35 33.67 0 0C20.62 -26.35 93.95 -22.89 93.95 0" stroke="rgba(238, 193, 34, 0.8666666666666667)" stroke-width="2"></path><path d="M541.58 201C541.58 169.52 568.67 137.83 603 137.83C648.52 137.83 701.27 169.57 701.27 201C701.27 232.3 648.58 263.28 603 263.28C568.73 263.28 541.58 232.25 541.58 201" stroke="rgba(238, 221, 34, 0.8666666666666667)" stroke-width="2"></path><path d="M1206 89.33C1156.15 89.33 1098.8 25.26 1098.8 0C1098.8 -19.41 1152.4 0 1206 0C1244.28 0 1282.57 -17.61 1282.57 0C1282.57 27.06 1248.03 89.33 1206 89.33" stroke="rgba(238, 221, 34, 0.8666666666666667)" stroke-width="2"></path><path d="M1550.08 201C1550.08 167.47 1591.09 142.09 1608 142.09C1620.05 142.09 1608 171.55 1608 201C1608 254.39 1621.55 307.78 1608 307.78C1592.59 307.78 1550.08 250.31 1550.08 201" stroke="rgba(238, 193, 34, 0.8666666666666667)" stroke-width="2"></path><path d="M1381.88 402C1381.88 397.06 1394.49 392.86 1407 392.86C1418.87 392.86 1430.65 397.07 1430.65 402C1430.65 407.07 1418.89 412.86 1407 412.86C1394.5 412.86 1381.88 407.06 1381.88 402" stroke="rgba(238, 193, 34, 0.8666666666666667)" stroke-width="2"></path><path d="M351.75 603C378.6 573.95 368.27 541.83 402 541.83C481.34 541.83 549.85 541.22 577.88 603C609.33 672.31 576.99 739.96 520.96 804C489.05 840.46 461.48 804 402 804C301.5 804 301.5 804 201 804C100.5 804 50.83 853.67 0 804C-49.67 755.46 -44.04 617.36 0 607.57C56.46 595.02 106.56 760.56 201 759.33C282.43 758.27 278.1 682.7 351.75 603" stroke="rgba(238, 193, 34, 0.8666666666666667)" stroke-width="2"></path><path d="M614.82 603C647.17 515.39 699.6 501.55 804 469C894.69 440.72 923.51 442.44 1005 481.34C1063.86 509.44 1084.71 542.64 1084.71 603C1084.71 661.26 1046.85 662.29 1005 718.58C972.13 762.79 981.15 784.5 935.27 804C880.65 827.21 869.63 804 804 804C742.15 804 715.23 841.1 680.31 804C620.64 740.6 585.32 682.89 614.82 603" stroke="rgba(238, 87, 34, 0.8666666666666667)" stroke-width="2"></path><path d="M1092.62 804C1092.62 782.75 1142.22 740.27 1206 726.42C1299.41 706.14 1315.37 709.88 1407 735.74C1452.79 748.67 1480.84 784.32 1480.84 804C1480.84 818.45 1443.92 804 1407 804C1306.5 804 1306.5 804 1206 804C1149.31 804 1092.62 821.54 1092.62 804" stroke="rgba(238, 174, 34, 0.8666666666666667)" stroke-width="2"></path><path d="M172.29 201C172.29 184.71 187.42 179.2 201 179.2C212.54 179.2 222.54 186.62 222.54 201C222.54 267.09 213.51 340.15 201 340.15C188.38 340.15 172.29 265.19 172.29 201" stroke="rgba(238, 174, 34, 0.8666666666666667)" stroke-width="2"></path><path d="M39.33 0C39.33 15.54 11 50.25 0 50.25C-8.66 50.25 -11.03 14.09 0 0C8.63 -11.03 39.33 -9.58 39.33 0" stroke="rgba(238, 87, 34, 0.8666666666666667)" stroke-width="2"></path><path d="M762.62 603C765.34 579.85 780.1 573.69 804 573.69C878.96 573.69 954.58 556.88 960.33 603C968.94 672.04 902.46 714.31 832.71 804C824.3 814.81 818.36 804 804 804C790.47 804 779.39 815.9 776.94 804C758.7 715.4 751.81 695 762.62 603" stroke="rgba(238, 193, 34, 0.8666666666666667)" stroke-width="2"></path><path d="M0 721.77C37.03 721.77 116.71 781.38 116.71 804C116.71 822.49 34.23 828.12 0 804C-24.12 787.01 -21.33 721.77 0 721.77" stroke="rgba(238, 174, 34, 0.8666666666666667)" stroke-width="2"></path><path d="M354.71 804C354.71 787.87 384.15 750.4 402 750.4C416 750.4 418.41 783.27 418.41 804C418.41 810.07 410.21 804 402 804C378.36 804 354.71 814.67 354.71 804" stroke="rgba(238, 193, 34, 0.8666666666666667)" stroke-width="2"></path></g><defs><mask id="SvgjsMask3240"><rect width="1471" height="803" fill="#ffffff"></rect></mask><linearGradient x1="88.65%" y1="-20.8%" x2="11.35%" y2="120.8%" gradientUnits="userSpaceOnUse" id="SvgjsLinearGradient3241"><stop stop-color="rgba(255, 208, 140, 1)" offset="0"></stop><stop stop-color="rgba(255, 255, 255, 1)" offset="1"></stop></linearGradient></defs></svg>