<svg id="visual" viewBox="0 0 900 600" width="900" height="600" xmlns="http://www.w3.org/2000/svg" xmlns:xlink="http://www.w3.org/1999/xlink" version="1.1"><path d="M0 43L180 25L360 37L540 19L720 25L900 25L900 0L720 0L540 0L360 0L180 0L0 0Z" fill="#eedd22"></path><path d="M0 133L180 109L360 217L540 121L720 121L900 187L900 23L720 23L540 17L360 35L180 23L0 41Z" fill="#f2d013"></path><path d="M0 145L180 121L360 247L540 145L720 139L900 199L900 185L720 119L540 119L360 215L180 107L0 131Z" fill="#f4c302"></path><path d="M0 175L180 175L360 277L540 193L720 187L900 229L900 197L720 137L540 143L360 245L180 119L0 143Z" fill="#f6b600"></path><path d="M0 199L180 205L360 295L540 211L720 223L900 259L900 227L720 185L540 191L360 275L180 173L0 173Z" fill="#f8a900"></path><path d="M0 229L180 235L360 325L540 229L720 247L900 271L900 257L720 221L540 209L360 293L180 203L0 197Z" fill="#f89c00"></path><path d="M0 283L180 313L360 385L540 289L720 283L900 319L900 269L720 245L540 227L360 323L180 233L0 227Z" fill="#f88e01"></path><path d="M0 313L180 331L360 421L540 325L720 319L900 355L900 317L720 281L540 287L360 383L180 311L0 281Z" fill="#f78005"></path><path d="M0 337L180 355L360 445L540 355L720 349L900 379L900 353L720 317L540 323L360 419L180 329L0 311Z" fill="#f5720d"></path><path d="M0 361L180 403L360 475L540 379L720 391L900 403L900 377L720 347L540 353L360 443L180 353L0 335Z" fill="#f36214"></path><path d="M0 445L180 481L360 517L540 457L720 433L900 481L900 401L720 389L540 377L360 473L180 401L0 359Z" fill="#f1521b"></path><path d="M0 601L180 601L360 601L540 601L720 601L900 601L900 479L720 431L540 455L360 515L180 479L0 443Z" fill="#ed4021"></path></svg>