<svg id="visual" viewBox="0 0 900 600" width="900" height="600" xmlns="http://www.w3.org/2000/svg" xmlns:xlink="http://www.w3.org/1999/xlink" version="1.1"><rect x="0" y="0" width="900" height="600" fill="#ff5151"></rect><defs><linearGradient id="grad1_0" x1="33.3%" y1="0%" x2="100%" y2="100%"><stop offset="20%" stop-color="#eedd22" stop-opacity="1"></stop><stop offset="80%" stop-color="#eedd22" stop-opacity="1"></stop></linearGradient></defs><defs><linearGradient id="grad1_1" x1="33.3%" y1="0%" x2="100%" y2="100%"><stop offset="20%" stop-color="#eedd22" stop-opacity="1"></stop><stop offset="80%" stop-color="#fcc213" stop-opacity="1"></stop></linearGradient></defs><defs><linearGradient id="grad1_2" x1="33.3%" y1="0%" x2="100%" y2="100%"><stop offset="20%" stop-color="#ffa61d" stop-opacity="1"></stop><stop offset="80%" stop-color="#fcc213" stop-opacity="1"></stop></linearGradient></defs><defs><linearGradient id="grad1_3" x1="33.3%" y1="0%" x2="100%" y2="100%"><stop offset="20%" stop-color="#ffa61d" stop-opacity="1"></stop><stop offset="80%" stop-color="#ff8a2f" stop-opacity="1"></stop></linearGradient></defs><defs><linearGradient id="grad1_4" x1="33.3%" y1="0%" x2="100%" y2="100%"><stop offset="20%" stop-color="#ff6d40" stop-opacity="1"></stop><stop offset="80%" stop-color="#ff8a2f" stop-opacity="1"></stop></linearGradient></defs><defs><linearGradient id="grad1_5" x1="33.3%" y1="0%" x2="100%" y2="100%"><stop offset="20%" stop-color="#ff6d40" stop-opacity="1"></stop><stop offset="80%" stop-color="#ff5151" stop-opacity="1"></stop></linearGradient></defs><defs><linearGradient id="grad2_0" x1="0%" y1="0%" x2="66.7%" y2="100%"><stop offset="20%" stop-color="#eedd22" stop-opacity="1"></stop><stop offset="80%" stop-color="#eedd22" stop-opacity="1"></stop></linearGradient></defs><defs><linearGradient id="grad2_1" x1="0%" y1="0%" x2="66.7%" y2="100%"><stop offset="20%" stop-color="#fcc213" stop-opacity="1"></stop><stop offset="80%" stop-color="#eedd22" stop-opacity="1"></stop></linearGradient></defs><defs><linearGradient id="grad2_2" x1="0%" y1="0%" x2="66.7%" y2="100%"><stop offset="20%" stop-color="#fcc213" stop-opacity="1"></stop><stop offset="80%" stop-color="#ffa61d" stop-opacity="1"></stop></linearGradient></defs><defs><linearGradient id="grad2_3" x1="0%" y1="0%" x2="66.7%" y2="100%"><stop offset="20%" stop-color="#ff8a2f" stop-opacity="1"></stop><stop offset="80%" stop-color="#ffa61d" stop-opacity="1"></stop></linearGradient></defs><defs><linearGradient id="grad2_4" x1="0%" y1="0%" x2="66.7%" y2="100%"><stop offset="20%" stop-color="#ff8a2f" stop-opacity="1"></stop><stop offset="80%" stop-color="#ff6d40" stop-opacity="1"></stop></linearGradient></defs><defs><linearGradient id="grad2_5" x1="0%" y1="0%" x2="66.7%" y2="100%"><stop offset="20%" stop-color="#ff5151" stop-opacity="1"></stop><stop offset="80%" stop-color="#ff6d40" stop-opacity="1"></stop></linearGradient></defs><g transform="translate(900, 0)"><path d="M0 540.8C-48.7 514.2 -97.3 487.6 -154.8 476.5C-212.3 465.4 -278.6 469.9 -317.9 437.5C-357.2 405.2 -369.5 336 -390.8 283.9C-412 231.8 -442.4 196.8 -468.9 152.3C-495.4 107.9 -518.1 53.9 -540.8 0L0 0Z" fill="#ff5f49"></path><path d="M0 450.7C-40.6 428.5 -81.1 406.3 -129 397.1C-176.9 387.8 -232.2 391.6 -264.9 364.6C-297.7 337.7 -307.9 280 -325.6 236.6C-343.4 193.2 -368.6 164 -390.7 127C-412.8 89.9 -431.8 44.9 -450.7 0L0 0Z" fill="#ff7c37"></path><path d="M0 360.6C-32.4 342.8 -64.9 325 -103.2 317.7C-141.5 310.3 -185.7 313.3 -211.9 291.7C-238.1 270.1 -246.3 224 -260.5 189.3C-274.7 154.5 -294.9 131.2 -312.6 101.6C-330.3 71.9 -345.4 36 -360.6 0L0 0Z" fill="#ff9826"></path><path d="M0 270.4C-24.3 257.1 -48.7 243.8 -77.4 238.2C-106.2 232.7 -139.3 234.9 -158.9 218.8C-178.6 202.6 -184.7 168 -195.4 142C-206 115.9 -221.2 98.4 -234.4 76.2C-247.7 53.9 -259.1 27 -270.4 0L0 0Z" fill="#ffb416"></path><path d="M0 180.3C-16.2 171.4 -32.4 162.5 -51.6 158.8C-70.8 155.1 -92.9 156.6 -106 145.8C-119.1 135.1 -123.2 112 -130.3 94.6C-137.3 77.3 -147.5 65.6 -156.3 50.8C-165.1 36 -172.7 18 -180.3 0L0 0Z" fill="#f6d017"></path><path d="M0 90.1C-8.1 85.7 -16.2 81.3 -25.8 79.4C-35.4 77.6 -46.4 78.3 -53 72.9C-59.5 67.5 -61.6 56 -65.1 47.3C-68.7 38.6 -73.7 32.8 -78.1 25.4C-82.6 18 -86.4 9 -90.1 0L0 0Z" fill="#eedd22"></path></g><g transform="translate(0, 600)"><path d="M0 -540.8C47.6 -503.1 95.1 -465.4 146.2 -449.8C197.2 -434.3 251.7 -441 309.2 -425.5C366.6 -410.1 427 -372.5 437.5 -317.9C448 -263.2 408.6 -191.5 417.5 -135.7C426.4 -79.8 483.6 -39.9 540.8 0L0 0Z" fill="#ff5f49"></path><path d="M0 -450.7C39.6 -419.3 79.3 -387.8 121.8 -374.9C164.3 -361.9 209.8 -367.5 257.6 -354.6C305.5 -341.7 355.9 -310.5 364.6 -264.9C373.4 -219.4 340.5 -159.6 347.9 -113C355.3 -66.5 403 -33.3 450.7 0L0 0Z" fill="#ff7c37"></path><path d="M0 -360.6C31.7 -335.4 63.4 -310.3 97.4 -299.9C131.5 -289.5 167.8 -294 206.1 -283.7C244.4 -273.4 284.7 -248.4 291.7 -211.9C298.7 -175.5 272.4 -127.7 278.3 -90.4C284.3 -53.2 322.4 -26.6 360.6 0L0 0Z" fill="#ff9826"></path><path d="M0 -270.4C23.8 -251.6 47.6 -232.7 73.1 -224.9C98.6 -217.2 125.9 -220.5 154.6 -212.8C183.3 -205 213.5 -186.3 218.8 -158.9C224 -131.6 204.3 -95.7 208.8 -67.8C213.2 -39.9 241.8 -20 270.4 0L0 0Z" fill="#ffb416"></path><path d="M0 -180.3C15.9 -167.7 31.7 -155.1 48.7 -149.9C65.7 -144.8 83.9 -147 103.1 -141.8C122.2 -136.7 142.3 -124.2 145.8 -106C149.3 -87.7 136.2 -63.8 139.2 -45.2C142.1 -26.6 161.2 -13.3 180.3 0L0 0Z" fill="#f6d017"></path><path d="M0 -90.1C7.9 -83.9 15.9 -77.6 24.4 -75C32.9 -72.4 42 -73.5 51.5 -70.9C61.1 -68.3 71.2 -62.1 72.9 -53C74.7 -43.9 68.1 -31.9 69.6 -22.6C71.1 -13.3 80.6 -6.7 90.1 0L0 0Z" fill="#eedd22"></path></g></svg>