<svg id="visual" viewBox="0 0 900 600" width="900" height="600" xmlns="http://www.w3.org/2000/svg" xmlns:xlink="http://www.w3.org/1999/xlink" version="1.1"><rect x="0" y="0" width="900" height="600" fill="#fc6f6f"></rect><defs><linearGradient id="grad1_0" x1="33.3%" y1="0%" x2="100%" y2="100%"><stop offset="20%" stop-color="#f9d845" stop-opacity="1"></stop><stop offset="80%" stop-color="#f9d845" stop-opacity="1"></stop></linearGradient></defs><defs><linearGradient id="grad1_1" x1="33.3%" y1="0%" x2="100%" y2="100%"><stop offset="20%" stop-color="#f9d845" stop-opacity="1"></stop><stop offset="80%" stop-color="#fc6f6f" stop-opacity="1"></stop></linearGradient></defs><defs><linearGradient id="grad2_0" x1="0%" y1="0%" x2="66.7%" y2="100%"><stop offset="20%" stop-color="#f9d845" stop-opacity="1"></stop><stop offset="80%" stop-color="#f9d845" stop-opacity="1"></stop></linearGradient></defs><defs><linearGradient id="grad2_1" x1="0%" y1="0%" x2="66.7%" y2="100%"><stop offset="20%" stop-color="#fc6f6f" stop-opacity="1"></stop><stop offset="80%" stop-color="#f9d845" stop-opacity="1"></stop></linearGradient></defs><g transform="translate(900, 0)"><path d="M0 432.7C-73.3 417.9 -146.5 403.1 -213 368.9C-279.5 334.7 -339.2 281.1 -374.7 216.3C-410.2 151.6 -421.4 75.8 -432.7 0L0 0Z" fill="#ffa050"></path><path d="M0 216.3C-36.6 209 -73.3 201.6 -106.5 184.5C-139.7 167.4 -169.6 140.5 -187.3 108.2C-205.1 75.8 -210.7 37.9 -216.3 0L0 0Z" fill="#f9d845"></path></g><g transform="translate(0, 600)"><path d="M0 -432.7C75.7 -421.4 151.4 -410.1 216.3 -374.7C281.3 -339.3 335.5 -280 369.8 -213.5C404.1 -147 418.4 -73.5 432.7 0L0 0Z" fill="#ffa050"></path><path d="M0 -216.3C37.8 -210.7 75.7 -205 108.2 -187.3C140.6 -169.7 167.8 -140 184.9 -106.8C202 -73.5 209.2 -36.8 216.3 0L0 0Z" fill="#f9d845"></path></g></svg>